# xmcd
#
# Track frame offsets:
# 150
# 15476
# 30919
# 48501
# 60421
# 72139
# 91992
# 103298
# 112775
# 129062
# 146502
# 160538
# 172792
# 191294
# 208373
#
# Disc length: 3029 seconds
#
#
# Revision: 0
# Processed by: cddbd v1.5.2PL0 Copyright (c) Steve Scherf et al.
# Submitted via: FreeRIP 2.96 
#
DISCID=b30bd30f
DTITLE=Various Artist - Linedancing Vol 9
DYEAR=1900
DGENRE=Country
TTITLE0=Achy Breaky Heart-Billy Ray Cyrus
TTITLE1=Brazillian Samba-Dave Sheriff
TTITLE2=Cowboy Charleston-Dave Sheriff
TTITLE3=Hey Good Looking-The Mavericks
TTITLE4=Honky Tonk Song-BR 549
TTITLE5=I Swear-J.M Montgomery
TTITLE6=Mambo Cubano-Perez Prado
TTITLE7=Mambo #8-Perez Prado
TTITLE8=Mambo Swing-Dance House
TTITLE9=Man I Feel Like A Woman-Shania Twain
TTITLE10=No One Needs To Know-Shania Twain
TTITLE11=Papa Loves Mambo-Dance House
TTITLE12=Stepping Stones-Black Hawk
TTITLE13=Their hearts Are Dancing-Forrester Sisters
TTITLE14=The Rose In The Heather-The Fables
EXTD=
EXTT0=
EXTT1=
EXTT2=
EXTT3=
EXTT4=
EXTT5=
EXTT6=
EXTT7=
EXTT8=
EXTT9=
EXTT10=
EXTT11=
EXTT12=
EXTT13=
EXTT14=
PLAYORDER=
